# xmcd
#
# Track frame offsets: 
#        150
#        14394
#        35584
#        48550
#        57943
#        78624
#        90398
#        93040
#        106471
#        123864
#        137536
#        155937
#        173448
#
# Disc length: 2530 seconds
#
# Revision: 0
# Processed by: cddbd v1.5.2PL0 Copyright (c) Steve Scherf et al.
# Submitted via: ExactAudioCopy v0.99pb5
#
DISCID=9e09e00d
DTITLE=Neil Merryweather and Carey - Vaccum Cleaner
DYEAR=1971
DGENRE=Blues
TTITLE0=Livin  In The USA
TTITLE1=Let It Shine
TTITLE2=So Fine
TTITLE3=Few and Far Between
TTITLE4=No Worries
TTITLE5=If I Were You
TTITLE6=Introduction by Kim Fowley
TTITLE7=Shop Around
TTITLE8=Sugar Man
TTITLE9=Can I Get A Witness
TTITLE10=Five Days on the Trail
TTITLE11=Captain Terrific
TTITLE12=Get Straight With Your Brother
EXTD=
EXTT0=
EXTT1=
EXTT2=
EXTT3=
EXTT4=
EXTT5=
EXTT6=
EXTT7=
EXTT8=
EXTT9=
EXTT10=
EXTT11=
EXTT12=
PLAYORDER=
